<?xml version="1.0" standalone="no"?>
<!DOCTYPE svg PUBLIC "-//W3C//DTD SVG 20010904//EN"
 "http://www.w3.org/TR/2001/REC-SVG-20010904/DTD/svg10.dtd">
<svg version="1.0" xmlns="http://www.w3.org/2000/svg"
 width="512.000000pt" height="512.000000pt" viewBox="0 0 512.000000 512.000000"
 preserveAspectRatio="xMidYMid meet">

<g transform="translate(0.000000,512.000000) scale(0.100000,-0.100000)"
fill="#000000" stroke="none">
<path d="M2390 5106 c-122 -35 -193 -106 -236 -234 l-22 -66 -619 -218 -618
-219 -54 26 c-181 88 -378 19 -463 -162 -64 -134 -29 -291 88 -398 l32 -30
-102 -748 c-57 -411 -107 -751 -112 -756 -5 -4 -27 -13 -49 -19 -131 -37 -235
-182 -235 -326 0 -101 71 -225 162 -282 50 -32 151 -57 203 -52 l41 5 188
-437 187 -437 -35 -52 c-118 -175 -51 -409 141 -499 48 -22 72 -26 138 -26
102 0 173 30 246 105 l50 51 437 -31 c240 -17 445 -31 454 -31 10 0 21 -14 29
-37 38 -116 152 -210 277 -229 56 -8 156 11 208 41 82 48 152 146 169 237 8
44 -73 18 670 213 308 81 561 143 562 138 12 -36 69 -108 110 -137 71 -52 130
-69 222 -64 249 15 398 283 277 498 -28 51 -85 109 -129 131 -21 11 -37 26
-34 32 2 7 64 225 138 486 92 327 138 475 149 478 106 36 187 104 229 193 21
46 26 69 25 140 0 72 -4 94 -27 142 -34 69 -119 150 -179 170 -53 18 -50 2
-83 381 l-27 299 47 45 c53 53 77 96 95 172 35 147 -54 319 -197 383 -65 29
-187 31 -259 4 l-51 -19 -768 353 c-423 193 -787 361 -810 372 l-41 20 -1 73
c-1 88 -30 161 -92 228 -77 83 -224 124 -331 93z m170 -188 c58 -40 75 -72 75
-142 0 -53 -4 -68 -27 -98 -34 -44 -102 -73 -153 -65 -155 25 -195 226 -61
308 44 27 123 26 166 -3z m-377 -312 c15 -23 12 -29 -159 -252 -97 -126 -183
-237 -192 -246 -16 -16 -40 -15 -416 20 l-400 37 -7 30 c-5 16 -7 30 -6 31 9
7 1136 402 1148 403 9 1 24 -10 32 -23z m1364 -421 c370 -170 671 -310 669
-312 -4 -4 -1514 133 -1572 142 l-31 5 -17 216 c-9 119 -16 217 -14 218 52 23
102 54 123 76 l27 28 72 -32 c39 -18 374 -171 743 -341z m-1159 264 c12 -5 22
-14 22 -21 0 -7 7 -98 15 -202 9 -104 14 -190 13 -191 -4 -3 -402 36 -406 40
-2 2 63 92 144 199 158 206 149 198 212 175z m-1617 -212 c107 -72 107 -212 0
-284 -25 -17 -48 -23 -86 -23 -168 0 -228 212 -86 307 25 17 48 23 86 23 38 0
61 -6 86 -23z m602 -276 c170 -16 311 -32 314 -34 5 -6 -238 -327 -247 -327
-4 0 -248 189 -423 327 -24 19 -27 25 -17 42 14 26 2 27 373 -8z m811 -76
c143 -13 263 -28 266 -32 4 -5 12 -87 19 -183 6 -96 14 -194 17 -216 l6 -42
-68 -12 c-137 -23 -264 -78 -374 -161 -36 -27 -68 -50 -72 -52 -11 -3 -397
296 -395 306 6 23 314 416 327 416 8 1 132 -10 274 -24z m1244 -115 c416 -38
776 -72 800 -75 38 -6 42 -9 42 -35 0 -27 -17 -37 -432 -256 -238 -125 -472
-248 -519 -273 l-86 -46 -53 58 c-63 69 -148 131 -247 181 -72 36 -198 76
-240 76 -12 0 -24 4 -27 9 -5 8 -36 360 -36 408 0 16 6 23 20 23 11 0 361 -31
778 -70z m1235 56 c51 -19 76 -42 99 -95 48 -106 -37 -231 -155 -231 -54 0
-118 40 -144 90 -49 92 -16 186 82 231 47 22 67 23 118 5z m-3557 -186 c121
-93 219 -176 219 -183 0 -13 -847 -1127 -852 -1123 -3 3 187 1409 190 1413 2
1 30 6 64 12 34 5 78 19 100 30 21 11 43 20 49 21 7 0 110 -76 230 -170z
m3257 -205 l28 -36 -18 -32 c-17 -28 -463 -748 -468 -755 -3 -4 -487 36 -491
41 -2 2 -9 30 -15 62 -6 32 -25 97 -41 144 -17 47 -27 86 -22 88 5 2 230 120
499 263 270 142 492 259 495 259 3 1 18 -15 33 -34z m-2701 -227 c101 -77 186
-144 191 -148 4 -3 -15 -49 -41 -102 -55 -107 -90 -225 -99 -326 l-6 -68 -559
-186 c-308 -103 -558 -183 -556 -178 2 5 154 206 338 446 470 614 540 704 545
704 3 0 87 -64 187 -142z m2972 80 c4 -24 15 -146 26 -273 11 -126 22 -245 24
-262 5 -31 2 -34 -50 -60 -32 -15 -76 -49 -103 -79 l-47 -51 -189 15 c-105 8
-192 16 -193 18 -2 1 98 167 223 368 l227 366 39 0 c37 0 38 -1 43 -42z
m-1936 -64 c152 -31 311 -129 399 -247 194 -262 189 -599 -11 -850 -181 -225
-507 -306 -783 -195 -181 73 -327 232 -391 425 -36 110 -37 283 -4 393 107
344 441 545 790 474z m2147 -683 c105 -48 135 -174 62 -258 -58 -66 -132 -80
-207 -40 -106 56 -119 199 -26 273 59 47 107 54 171 25z m-1182 -84 l137 -12
-171 -275 c-94 -151 -177 -285 -185 -298 -19 -28 -21 -27 -128 76 l-86 83 38
57 c68 102 115 223 136 354 l7 36 57 -5 c31 -2 119 -10 195 -16z m627 -50
c222 -18 226 -14 -206 -230 -196 -98 -354 -174 -352 -169 1 4 61 101 132 216
l129 207 76 -6 c42 -4 141 -12 221 -18z m-2551 -69 c17 -70 90 -221 135 -280
20 -26 36 -49 36 -51 0 -10 -502 -672 -510 -672 -5 0 -167 117 -361 260 -193
143 -354 262 -358 265 -4 3 -5 45 -2 94 l6 89 515 173 c283 95 518 173 521
173 3 1 11 -23 18 -51z m2801 -188 c21 -21 58 -49 82 -61 24 -12 44 -23 46
-24 3 -3 -253 -908 -266 -938 -4 -11 -35 -28 -74 -41 l-67 -24 -350 327 c-192
179 -350 328 -350 331 -1 5 918 468 932 469 4 1 25 -17 47 -39z m-4120 -43
c90 -47 116 -163 55 -243 -71 -93 -204 -85 -273 16 -20 29 -23 45 -20 91 5 68
35 114 92 140 55 25 94 24 146 -4z m2763 -268 c37 -33 67 -65 67 -70 0 -9
-1432 -729 -1450 -729 -17 0 -255 180 -252 191 4 15 481 649 489 649 3 0 33
-17 67 -38 159 -99 262 -127 466 -127 148 1 159 2 250 33 97 34 227 101 257
134 9 10 21 18 27 18 6 0 41 -28 79 -61z m-2303 -339 c151 -112 308 -228 347
-257 l73 -54 -126 -167 -125 -167 -57 -7 c-31 -3 -60 -3 -63 0 -4 4 -89 198
-188 431 -134 313 -178 426 -169 432 7 4 17 4 23 0 5 -5 134 -100 285 -211z
m2092 -386 c-275 -442 -279 -449 -308 -444 -16 3 -65 5 -109 5 -66 0 -90 -5
-139 -27 l-58 -28 -199 147 c-109 81 -199 150 -199 153 0 6 1284 649 1288 645
2 -2 -122 -205 -276 -451z m831 144 c182 -171 333 -312 335 -313 3 -2 -37
-127 -41 -132 -1 -1 -278 -74 -615 -163 -584 -154 -614 -161 -628 -143 -7 10
-16 26 -19 35 -4 10 104 193 307 522 172 278 316 505 321 505 4 1 157 -139
340 -311z m-2267 -243 l86 -64 -186 -93 c-166 -83 -187 -91 -201 -77 -13 13
-4 30 90 157 58 78 110 142 116 142 5 0 48 -29 95 -65z m2984 -106 c50 -28 80
-83 80 -146 0 -65 -30 -110 -93 -142 -69 -34 -127 -24 -183 33 -57 56 -67 114
-33 183 13 27 39 58 58 70 45 30 119 31 171 2z m-2497 -254 c125 -92 227 -172
227 -179 -1 -38 -3 -38 -441 -7 -233 17 -427 31 -430 31 -4 0 -10 17 -14 38
-3 20 -9 47 -12 59 -4 20 15 32 204 127 114 58 215 104 224 102 8 -2 117 -78
242 -171z m-923 3 c62 -32 92 -85 87 -156 -11 -158 -204 -209 -300 -80 -53 71
-21 191 63 235 54 29 94 29 150 1z m1540 -171 c135 -71 109 -267 -40 -307
-153 -41 -271 148 -167 267 58 66 132 80 207 40z"/>
<path d="M2470 3031 l0 -39 -101 -4 c-96 -3 -102 -4 -125 -31 l-24 -28 0 -374
0 -373 31 -26 c28 -24 38 -26 124 -26 l94 0 3 -42 3 -43 85 0 85 0 3 41 c3 40
5 42 40 49 86 16 164 79 198 160 29 70 12 197 -33 247 -15 17 -15 19 0 36 48
53 62 183 28 257 -35 75 -112 134 -193 149 -36 7 -38 9 -38 46 l0 40 -90 0
-90 0 0 -39z m227 -236 c42 -30 34 -121 -12 -139 -9 -3 -79 -6 -156 -6 l-139
0 0 80 0 80 143 0 c111 0 147 -3 164 -15z m-6 -338 c27 -20 41 -56 34 -88 -12
-52 -34 -59 -192 -59 l-143 0 0 80 0 80 143 0 c96 -1 147 -5 158 -13z"/>
</g>
</svg>
